<mxfile host="app.diagrams.net" modified="2024-03-20T03:18:54.401Z" agent="Mozilla/5.0 (Windows NT 10.0; Win64; x64) AppleWebKit/537.36 (KHTML, like Gecko) Chrome/122.0.0.0 Safari/537.36" etag="_PS-L2TXaDKhNZLuT4wc" version="24.0.7" type="google">
  <diagram name="Page-1" id="jCO7csRQvXoBTF9NxVAz">
    <mxGraphModel grid="1" page="1" gridSize="10" guides="1" tooltips="1" connect="1" arrows="1" fold="1" pageScale="1" pageWidth="850" pageHeight="1100" math="0" shadow="0">
      <root>
        <mxCell id="0" />
        <mxCell id="1" parent="0" />
        <mxCell id="22ybMLmx077lhxHrLCE8-1" value="CUSTOMER" style="shape=umlActor;verticalLabelPosition=bottom;verticalAlign=top;html=1;outlineConnect=0;" vertex="1" parent="1">
          <mxGeometry x="-790" y="1809" width="40" height="70" as="geometry" />
        </mxCell>
        <mxCell id="22ybMLmx077lhxHrLCE8-2" value="Service Authentication" style="shape=umlActor;verticalLabelPosition=bottom;verticalAlign=top;html=1;outlineConnect=0;" vertex="1" parent="1">
          <mxGeometry x="475" y="1530" width="40" height="79" as="geometry" />
        </mxCell>
        <mxCell id="22ybMLmx077lhxHrLCE8-3" value="&lt;font style=&quot;font-size: 34px;&quot;&gt;&lt;b&gt;&lt;i&gt;&lt;u&gt;UseCase Diagram&lt;/u&gt;&lt;/i&gt;&lt;/b&gt;&lt;/font&gt;" style="text;html=1;align=center;verticalAlign=middle;resizable=0;points=[];autosize=1;strokeColor=none;fillColor=none;" vertex="1" parent="1">
          <mxGeometry x="-362" y="1167" width="310" height="50" as="geometry" />
        </mxCell>
        <mxCell id="22ybMLmx077lhxHrLCE8-4" value="New User" style="shape=umlActor;verticalLabelPosition=bottom;verticalAlign=top;html=1;outlineConnect=0;" vertex="1" parent="1">
          <mxGeometry x="-605" y="1689" width="40" height="70" as="geometry" />
        </mxCell>
        <mxCell id="22ybMLmx077lhxHrLCE8-5" value="Existing User" style="shape=umlActor;verticalLabelPosition=bottom;verticalAlign=top;html=1;outlineConnect=0;" vertex="1" parent="1">
          <mxGeometry x="-605" y="1929" width="40" height="70" as="geometry" />
        </mxCell>
        <mxCell id="22ybMLmx077lhxHrLCE8-6" value="Paypal" style="shape=umlActor;verticalLabelPosition=bottom;verticalAlign=top;html=1;outlineConnect=0;" vertex="1" parent="1">
          <mxGeometry x="475" y="2009" width="40" height="80" as="geometry" />
        </mxCell>
        <mxCell id="22ybMLmx077lhxHrLCE8-7" value="Identity Provider" style="shape=umlActor;verticalLabelPosition=bottom;verticalAlign=top;html=1;outlineConnect=0;" vertex="1" parent="1">
          <mxGeometry x="475" y="1689" width="40" height="80" as="geometry" />
        </mxCell>
        <mxCell id="22ybMLmx077lhxHrLCE8-8" value="Credit Payment&lt;div&gt;service&lt;/div&gt;" style="shape=umlActor;verticalLabelPosition=bottom;verticalAlign=top;html=1;outlineConnect=0;" vertex="1" parent="1">
          <mxGeometry x="475" y="1849" width="40" height="80" as="geometry" />
        </mxCell>
        <mxCell id="22ybMLmx077lhxHrLCE8-9" value="&lt;font style=&quot;font-size: 16px;&quot;&gt;Make purchase&lt;/font&gt;" style="ellipse;whiteSpace=wrap;html=1;fillColor=#dae8fc;strokeColor=#6c8ebf;" vertex="1" parent="1">
          <mxGeometry x="-165" y="1809" width="120" height="80" as="geometry" />
        </mxCell>
        <mxCell id="22ybMLmx077lhxHrLCE8-10" value="&lt;font style=&quot;font-size: 16px;&quot;&gt;Client Register&lt;/font&gt;" style="ellipse;whiteSpace=wrap;html=1;fillColor=#dae8fc;strokeColor=#6c8ebf;" vertex="1" parent="1">
          <mxGeometry x="-165" y="2049" width="120" height="80" as="geometry" />
        </mxCell>
        <mxCell id="22ybMLmx077lhxHrLCE8-11" value="&lt;font style=&quot;font-size: 16px;&quot;&gt;Ceckout&lt;/font&gt;" style="ellipse;whiteSpace=wrap;html=1;fillColor=#dae8fc;strokeColor=#6c8ebf;" vertex="1" parent="1">
          <mxGeometry x="-165" y="1929" width="120" height="80" as="geometry" />
        </mxCell>
        <mxCell id="22ybMLmx077lhxHrLCE8-12" value="&lt;font style=&quot;font-size: 16px;&quot;&gt;Client register&lt;/font&gt;" style="ellipse;whiteSpace=wrap;html=1;fillColor=#dae8fc;strokeColor=#6c8ebf;" vertex="1" parent="1">
          <mxGeometry x="195" y="1450" width="120" height="80" as="geometry" />
        </mxCell>
        <mxCell id="22ybMLmx077lhxHrLCE8-13" value="&lt;font style=&quot;font-size: 16px;&quot;&gt;View items&lt;/font&gt;" style="ellipse;whiteSpace=wrap;html=1;fillColor=#dae8fc;strokeColor=#6c8ebf;" vertex="1" parent="1">
          <mxGeometry x="-165" y="1689" width="120" height="80" as="geometry" />
        </mxCell>
        <mxCell id="22ybMLmx077lhxHrLCE8-14" value="&lt;font style=&quot;font-size: 16px;&quot;&gt;Add item to cart&lt;/font&gt;" style="ellipse;whiteSpace=wrap;html=1;fillColor=#dae8fc;strokeColor=#6c8ebf;" vertex="1" parent="1">
          <mxGeometry x="-165" y="1569" width="120" height="80" as="geometry" />
        </mxCell>
        <mxCell id="22ybMLmx077lhxHrLCE8-15" value="&lt;font style=&quot;font-size: 16px;&quot;&gt;Edit item in cart&lt;/font&gt;" style="ellipse;whiteSpace=wrap;html=1;fillColor=#dae8fc;strokeColor=#6c8ebf;" vertex="1" parent="1">
          <mxGeometry x="-165" y="1450" width="120" height="80" as="geometry" />
        </mxCell>
        <mxCell id="22ybMLmx077lhxHrLCE8-16" value="&lt;font style=&quot;font-size: 16px;&quot;&gt;Delete item in cart&lt;/font&gt;" style="ellipse;whiteSpace=wrap;html=1;fillColor=#dae8fc;strokeColor=#6c8ebf;" vertex="1" parent="1">
          <mxGeometry x="-165" y="1329" width="120" height="80" as="geometry" />
        </mxCell>
        <mxCell id="22ybMLmx077lhxHrLCE8-17" value="&lt;font style=&quot;font-size: 16px;&quot;&gt;Manage Cart&lt;/font&gt;" style="ellipse;whiteSpace=wrap;html=1;fillColor=#dae8fc;strokeColor=#6c8ebf;" vertex="1" parent="1">
          <mxGeometry x="-455" y="1450" width="120" height="80" as="geometry" />
        </mxCell>
        <mxCell id="22ybMLmx077lhxHrLCE8-18" style="edgeStyle=orthogonalEdgeStyle;rounded=0;orthogonalLoop=1;jettySize=auto;html=1;exitX=0.5;exitY=0.5;exitDx=0;exitDy=0;exitPerimeter=0;entryX=0;entryY=0.3333333333333333;entryDx=0;entryDy=0;entryPerimeter=0;" edge="1" parent="1" target="22ybMLmx077lhxHrLCE8-4">
          <mxGeometry relative="1" as="geometry">
            <mxPoint x="-746" y="1842" as="sourcePoint" />
          </mxGeometry>
        </mxCell>
        <mxCell id="22ybMLmx077lhxHrLCE8-19" style="edgeStyle=orthogonalEdgeStyle;rounded=0;orthogonalLoop=1;jettySize=auto;html=1;exitX=0.5;exitY=0.5;exitDx=0;exitDy=0;exitPerimeter=0;entryX=0;entryY=0.3333333333333333;entryDx=0;entryDy=0;entryPerimeter=0;" edge="1" parent="1" target="22ybMLmx077lhxHrLCE8-5">
          <mxGeometry relative="1" as="geometry">
            <mxPoint x="-746" y="1842" as="sourcePoint" />
          </mxGeometry>
        </mxCell>
        <mxCell id="22ybMLmx077lhxHrLCE8-20" value="" style="whiteSpace=wrap;html=1;aspect=fixed;fillColor=none;" vertex="1" parent="1">
          <mxGeometry x="-500" y="1294" width="860" height="860" as="geometry" />
        </mxCell>
        <mxCell id="22ybMLmx077lhxHrLCE8-21" value="" style="endArrow=none;html=1;rounded=0;entryX=1;entryY=0.3333333333333333;entryDx=0;entryDy=0;entryPerimeter=0;exitX=0;exitY=1;exitDx=0;exitDy=0;" edge="1" parent="1" source="22ybMLmx077lhxHrLCE8-17" target="22ybMLmx077lhxHrLCE8-4">
          <mxGeometry width="50" height="50" relative="1" as="geometry">
            <mxPoint x="-85" y="1849" as="sourcePoint" />
            <mxPoint x="-65" y="1789" as="targetPoint" />
          </mxGeometry>
        </mxCell>
        <mxCell id="22ybMLmx077lhxHrLCE8-22" value="" style="endArrow=none;html=1;rounded=0;exitX=1;exitY=0.3333333333333333;exitDx=0;exitDy=0;exitPerimeter=0;entryX=0;entryY=0.5;entryDx=0;entryDy=0;" edge="1" parent="1" source="22ybMLmx077lhxHrLCE8-4" target="22ybMLmx077lhxHrLCE8-13">
          <mxGeometry width="50" height="50" relative="1" as="geometry">
            <mxPoint x="-85" y="1849" as="sourcePoint" />
            <mxPoint x="-35" y="1799" as="targetPoint" />
          </mxGeometry>
        </mxCell>
        <mxCell id="22ybMLmx077lhxHrLCE8-23" value="" style="endArrow=none;html=1;rounded=0;entryX=0;entryY=0.5;entryDx=0;entryDy=0;exitX=1;exitY=0.3333333333333333;exitDx=0;exitDy=0;exitPerimeter=0;" edge="1" parent="1" source="22ybMLmx077lhxHrLCE8-4" target="22ybMLmx077lhxHrLCE8-9">
          <mxGeometry width="50" height="50" relative="1" as="geometry">
            <mxPoint x="-555" y="1719" as="sourcePoint" />
            <mxPoint x="-155" y="1739" as="targetPoint" />
          </mxGeometry>
        </mxCell>
        <mxCell id="22ybMLmx077lhxHrLCE8-24" value="" style="endArrow=none;html=1;rounded=0;exitX=1;exitY=0.3333333333333333;exitDx=0;exitDy=0;exitPerimeter=0;entryX=0;entryY=0.5;entryDx=0;entryDy=0;" edge="1" parent="1" source="22ybMLmx077lhxHrLCE8-5" target="22ybMLmx077lhxHrLCE8-13">
          <mxGeometry width="50" height="50" relative="1" as="geometry">
            <mxPoint x="-545" y="1732" as="sourcePoint" />
            <mxPoint x="-155" y="1859" as="targetPoint" />
          </mxGeometry>
        </mxCell>
        <mxCell id="22ybMLmx077lhxHrLCE8-25" value="" style="endArrow=none;html=1;rounded=0;entryX=0;entryY=0.5;entryDx=0;entryDy=0;" edge="1" parent="1" target="22ybMLmx077lhxHrLCE8-10">
          <mxGeometry width="50" height="50" relative="1" as="geometry">
            <mxPoint x="-565" y="1949" as="sourcePoint" />
            <mxPoint x="-145" y="1869" as="targetPoint" />
          </mxGeometry>
        </mxCell>
        <mxCell id="22ybMLmx077lhxHrLCE8-26" value="" style="endArrow=none;html=1;rounded=0;exitX=1;exitY=0.5;exitDx=0;exitDy=0;entryX=0;entryY=0.3333333333333333;entryDx=0;entryDy=0;entryPerimeter=0;" edge="1" parent="1" source="22ybMLmx077lhxHrLCE8-12" target="22ybMLmx077lhxHrLCE8-2">
          <mxGeometry width="50" height="50" relative="1" as="geometry">
            <mxPoint x="295" y="1472" as="sourcePoint" />
            <mxPoint x="685" y="1599" as="targetPoint" />
          </mxGeometry>
        </mxCell>
        <mxCell id="22ybMLmx077lhxHrLCE8-27" value="" style="endArrow=none;html=1;rounded=0;exitX=1;exitY=0.5;exitDx=0;exitDy=0;entryX=0;entryY=0.3333333333333333;entryDx=0;entryDy=0;entryPerimeter=0;" edge="1" parent="1" source="22ybMLmx077lhxHrLCE8-13" target="22ybMLmx077lhxHrLCE8-2">
          <mxGeometry width="50" height="50" relative="1" as="geometry">
            <mxPoint x="75" y="1619" as="sourcePoint" />
            <mxPoint x="465" y="1746" as="targetPoint" />
          </mxGeometry>
        </mxCell>
        <mxCell id="22ybMLmx077lhxHrLCE8-28" value="" style="endArrow=none;html=1;rounded=0;exitX=1;exitY=0.3333333333333333;exitDx=0;exitDy=0;exitPerimeter=0;entryX=0;entryY=0.3333333333333333;entryDx=0;entryDy=0;entryPerimeter=0;" edge="1" parent="1" target="22ybMLmx077lhxHrLCE8-7">
          <mxGeometry width="50" height="50" relative="1" as="geometry">
            <mxPoint x="-45" y="1729" as="sourcePoint" />
            <mxPoint x="345" y="1856" as="targetPoint" />
          </mxGeometry>
        </mxCell>
        <mxCell id="22ybMLmx077lhxHrLCE8-29" value="" style="endArrow=none;html=1;rounded=0;exitX=1;exitY=0.5;exitDx=0;exitDy=0;entryX=0;entryY=0.3333333333333333;entryDx=0;entryDy=0;entryPerimeter=0;" edge="1" parent="1" source="22ybMLmx077lhxHrLCE8-9" target="22ybMLmx077lhxHrLCE8-7">
          <mxGeometry width="50" height="50" relative="1" as="geometry">
            <mxPoint x="-45" y="1809" as="sourcePoint" />
            <mxPoint x="345" y="1936" as="targetPoint" />
          </mxGeometry>
        </mxCell>
        <mxCell id="22ybMLmx077lhxHrLCE8-30" value="" style="endArrow=none;html=1;rounded=0;exitX=1;exitY=0.5;exitDx=0;exitDy=0;entryX=0;entryY=0.3333333333333333;entryDx=0;entryDy=0;entryPerimeter=0;" edge="1" parent="1" source="22ybMLmx077lhxHrLCE8-11" target="22ybMLmx077lhxHrLCE8-7">
          <mxGeometry width="50" height="50" relative="1" as="geometry">
            <mxPoint x="-15" y="1889" as="sourcePoint" />
            <mxPoint x="465" y="1839" as="targetPoint" />
          </mxGeometry>
        </mxCell>
        <mxCell id="22ybMLmx077lhxHrLCE8-31" value="" style="endArrow=none;html=1;rounded=0;exitX=1;exitY=0.5;exitDx=0;exitDy=0;entryX=0;entryY=0.3333333333333333;entryDx=0;entryDy=0;entryPerimeter=0;" edge="1" parent="1" source="22ybMLmx077lhxHrLCE8-11" target="22ybMLmx077lhxHrLCE8-8">
          <mxGeometry width="50" height="50" relative="1" as="geometry">
            <mxPoint x="5" y="1929" as="sourcePoint" />
            <mxPoint x="395" y="2056" as="targetPoint" />
          </mxGeometry>
        </mxCell>
        <mxCell id="22ybMLmx077lhxHrLCE8-32" value="" style="endArrow=none;html=1;rounded=0;entryX=0;entryY=0.3333333333333333;entryDx=0;entryDy=0;entryPerimeter=0;exitX=1;exitY=0.5;exitDx=0;exitDy=0;" edge="1" parent="1" source="22ybMLmx077lhxHrLCE8-11" target="22ybMLmx077lhxHrLCE8-6">
          <mxGeometry width="50" height="50" relative="1" as="geometry">
            <mxPoint x="-15" y="1999" as="sourcePoint" />
            <mxPoint x="345" y="2096" as="targetPoint" />
          </mxGeometry>
        </mxCell>
      </root>
    </mxGraphModel>
  </diagram>
</mxfile>
